<?xml version="1.0" encoding="UTF-8" standalone="no"?>
<!-- Created with Inkscape (http://www.inkscape.org/) -->

<svg
   width="30mm"
   height="30mm"
   viewBox="0 0 30 30"
   version="1.1"
   id="svg7942"
   sodipodi:docname="light.svg"
   inkscape:version="1.2.1 (9c6d41e410, 2022-07-14)"
   xmlns:inkscape="http://www.inkscape.org/namespaces/inkscape"
   xmlns:sodipodi="http://sodipodi.sourceforge.net/DTD/sodipodi-0.dtd"
   xmlns="http://www.w3.org/2000/svg"
   xmlns:svg="http://www.w3.org/2000/svg">
  <sodipodi:namedview
     id="namedview7944"
     pagecolor="#000000"
     bordercolor="#ffffff"
     borderopacity="0"
     inkscape:showpageshadow="2"
     inkscape:pageopacity="0"
     inkscape:pagecheckerboard="0"
     inkscape:deskcolor="#363636"
     inkscape:document-units="mm"
     showgrid="true"
     inkscape:zoom="2.0000001"
     inkscape:cx="60.999998"
     inkscape:cy="148.74999"
     inkscape:window-width="958"
     inkscape:window-height="1008"
     inkscape:window-x="953"
     inkscape:window-y="0"
     inkscape:window-maximized="0"
     inkscape:current-layer="layer1"
     showguides="true">
    <inkscape:grid
       type="xygrid"
       id="grid8063"
       originx="0"
       originy="0" />
  </sodipodi:namedview>
  <defs
     id="defs7939" />
  <g
     inkscape:label="Layer 1"
     inkscape:groupmode="layer"
     id="layer1">
    <path
       style="fill:#e6e6e6;stroke-width:0.196949"
       d="m 13.806048,27.705576 c -0.352039,-0.21477 -0.640092,-0.52462 -0.640092,-0.688686 0,-0.179066 -0.1793,-0.298288 -0.448446,-0.298288 -0.246724,0 -0.638295,-0.13219 -0.870487,-0.29524 -0.422509,-0.2961 -0.452744,-0.766344 -0.246568,-3.840705 0.02031,-0.289928 -0.165707,-1.087366 -0.713374,-3.059829 -0.150706,-0.54548 -0.621029,-1.565424 -1.0439279,-2.266688 -1.024631,-1.698864 -1.268152,-2.598414 -1.176431,-4.345715 0.09211,-1.744724 0.610482,-2.9343583 1.8034749,-4.1339145 1.284324,-1.2915113 2.664821,-1.8508979 4.566736,-1.8508979 1.902071,0 3.282568,0.5593866 4.566814,1.8508979 1.265885,1.2728385 1.72152,2.3754395 1.799334,4.3525905 0.07188,1.828554 0.237036,1.357372 -1.87043,5.338158 -0.26399,0.498838 -0.555792,1.442452 -0.648216,2.096918 -0.09203,0.654389 -0.267975,1.376357 -0.390008,1.604174 -0.142269,0.264615 -0.155629,0.53884 -0.03984,0.759001 0.09875,0.189613 0.179769,0.990255 0.178598,1.779177 0,1.231198 -0.06016,1.475422 -0.414462,1.723317 -0.226802,0.159066 -0.608138,0.288756 -0.847518,0.288756 -0.26313,0 -0.485088,0.157347 -0.561105,0.396102 -0.153988,0.486573 -1.069788,0.982755 -1.81121,0.981896 -0.303287,-4.69e-4 -0.83947,-0.17641 -1.191509,-0.391024 z m 2.363487,-0.642279 c 0.443056,-0.443056 0.443056,-0.443056 -0.399071,-0.503995 -0.463369,-0.03359 -1.17229,-0.03359 -1.575736,0 -0.733297,0.06016 -0.733297,0.06016 -0.290084,0.503995 0.290631,0.290787 0.679936,0.443056 1.132289,0.443056 0.452275,0 0.841814,-0.152269 1.132602,-0.443056 z m 1.883007,-1.378622 c 0.06016,-0.316413 -0.186019,-0.344695 -3.001078,-0.344695 -2.424659,0 -3.067173,0.05547 -3.067173,0.262662 0,0.143909 0.06172,0.323913 0.135628,0.398836 0.075,0.075 1.425498,0.11219 3.001,0.08203 2.546459,-0.04844 2.872013,-0.09203 2.93092,-0.398836 z m 0,-1.046428 c -0.09547,-0.46251 -5.940358,-0.46251 -6.036063,0 -0.05547,0.268677 0.327742,0.307818 3.01811,0.307818 2.690212,0 3.073501,-0.03828 3.017953,-0.307818 z m 0.03516,-1.169243 c 0,-0.249928 -0.4704,-0.295475 -3.052797,-0.295475 -2.582085,0 -3.052564,0.04531 -3.052564,0.295475 0,0.249927 0.470479,0.295474 3.052564,0.295474 2.582397,0 3.052797,-0.04531 3.052797,-0.295474 z m -0.387898,-1.245417 c 0.329772,-0.267115 0.487979,-0.683452 0.616497,-1.623393 0.162425,-1.192838 0.44165,-1.863789 1.972072,-4.750958 0.488682,-0.92166 0.595638,-1.358622 0.602356,-2.461849 0.01641,-1.827147 -0.560949,-3.120767 -1.935743,-4.3771998 -2.354971,-2.1523885 -5.48488,-2.1523885 -7.840085,0 -1.3523719,1.2361978 -1.9462899,2.5544278 -1.9441809,4.3158708 0,1.388701 0.301491,2.285985 1.2661979,3.789141 0.66728,1.039866 1.348388,3.019282 1.348388,3.918363 0,0.355554 0.188129,0.770563 0.483447,1.065647 0.456963,0.456963 0.607122,0.483448 2.735526,0.483448 1.886055,0 2.324111,-0.0586 2.695525,-0.35907 z M 5.0233649,18.90633 c -0.071877,-0.07188 -0.1305495,-0.195004 -0.1305495,-0.272974 0,-0.272349 2.7851357,-1.793631 3.0777207,-1.681363 0.44329,0.170082 0.206723,0.399071 -1.3242468,1.281745 C 5.0898507,19.131179 5.202353,19.084459 5.0240681,18.90633 Z M 23.449998,18.267098 c -1.562141,-0.929941 -1.789255,-1.146508 -1.370341,-1.307214 0.379149,-0.145628 3.145691,1.442764 3.044126,1.747614 -0.127268,0.37993 -0.429384,0.300319 -1.673785,-0.4404 z M 3.6166169,13.333793 c -0.2746932,-0.444463 0.1876602,-0.598606 1.7939436,-0.598606 1.4906556,0 1.6696446,0.03828 1.6110496,0.344694 -0.05547,0.288912 -0.3257885,0.353836 -1.6721446,0.401571 -0.9611919,0.03359 -1.657222,-0.025 -1.7328486,-0.147347 z m 19.5333751,0.06563 c -0.075,-0.075 -0.138909,-0.260318 -0.138909,-0.408993 0,-0.212739 0.366414,-0.25813 1.723317,-0.213207 1.375341,0.04531 1.723317,0.117111 1.723317,0.352195 0,0.23352 -0.332585,0.307271 -1.58472,0.35196 -0.871425,0.03203 -1.646988,0 -1.723317,-0.08196 z M 6.4687075,8.6290074 C 5.7649429,8.2235302 5.1603209,7.7409421 5.1248514,7.5563288 5.0896944,7.3718719 5.1436018,7.2210094 5.2453227,7.2210094 c 0.4009458,0 2.9949064,1.6426904 2.9949064,1.8964457 0,0.417118 -0.383836,0.3113346 -1.771756,-0.4884477 z M 21.829809,9.1174551 c 0,-0.3148503 2.71779,-1.9439467 2.97639,-1.7842559 0.37196,0.2298485 0.127268,0.4894633 -1.18901,1.2577605 -1.463702,0.8547053 -1.78738,0.9501761 -1.78738,0.5264954 z M 9.9635461,5.130419 C 9.2089211,3.8033601 9.0382141,3.1868629 9.4640041,3.328819 9.7732301,3.4325712 11.389435,6.0800481 11.265526,6.2805992 11.027006,6.6666228 10.645201,6.3290382 9.9635461,5.130419 Z m 8.8465899,1.155024 c -0.137268,-0.2300048 1.511907,-2.9986561 1.788631,-3.0011562 0.409931,0 0.28235,0.4720411 -0.492354,1.8364445 C 19.427649,6.316303 19.0385,6.6659197 18.810136,6.285443 Z M 14.739427,3.6759356 c 0,-1.4444051 0.05391,-1.7725369 0.295475,-1.7725369 0.240864,0 0.295474,0.3281318 0.295474,1.7725369 0,1.4443269 -0.05391,1.7725369 -0.295474,1.7725369 -0.240709,0 -0.295475,-0.32821 -0.295475,-1.7725369 z"
       id="path28978-9-7-3" />
  </g>
</svg>
