<?xml version="1.0" encoding="UTF-8" standalone="no"?>
<!-- Created with Inkscape (http://www.inkscape.org/) -->

<svg
   width="30mm"
   height="30mm"
   viewBox="0 0 30 30"
   version="1.1"
   id="svg7942"
   sodipodi:docname="rotate.svg"
   inkscape:version="1.2.1 (9c6d41e410, 2022-07-14)"
   xmlns:inkscape="http://www.inkscape.org/namespaces/inkscape"
   xmlns:sodipodi="http://sodipodi.sourceforge.net/DTD/sodipodi-0.dtd"
   xmlns="http://www.w3.org/2000/svg"
   xmlns:svg="http://www.w3.org/2000/svg">
  <sodipodi:namedview
     id="namedview7944"
     pagecolor="#000000"
     bordercolor="#ffffff"
     borderopacity="0"
     inkscape:showpageshadow="2"
     inkscape:pageopacity="0"
     inkscape:pagecheckerboard="0"
     inkscape:deskcolor="#363636"
     inkscape:document-units="mm"
     showgrid="true"
     inkscape:zoom="2.0000001"
     inkscape:cx="60.999998"
     inkscape:cy="148.74999"
     inkscape:window-width="958"
     inkscape:window-height="1008"
     inkscape:window-x="953"
     inkscape:window-y="0"
     inkscape:window-maximized="0"
     inkscape:current-layer="layer1"
     showguides="true">
    <inkscape:grid
       type="xygrid"
       id="grid8063"
       originx="0"
       originy="0" />
  </sodipodi:namedview>
  <defs
     id="defs7939" />
  <g
     inkscape:label="Layer 1"
     inkscape:groupmode="layer"
     id="layer1">
    <path
       style="fill:#ececec;stroke-width:0.224198"
       d="m 13.15995,29.305994 c -0.5809,-0.067 -1.1022,-0.1672 -1.159,-0.2246 -0.056,-0.056 0,-0.5708 0.1329,-1.1422 0.2363,-1.0389 0.2363,-1.0389 1.1587,-0.9241 0.5065,0.062 0.983,0.1778 1.0589,0.2547 0.077,0.077 0.077,0.5938 0,1.1487 -0.1372,1.0089 -0.1372,1.0089 -1.1935,0.8875 z m 3.5453,-0.3454 c -0.073,-0.195 -0.1371,-0.6872 -0.1371,-1.0938 0,-0.6812 0.073,-0.7579 0.9455,-0.979 0.5202,-0.1328 0.9597,-0.2202 0.9768,-0.195 0.032,0.024 0.1864,0.5143 0.3784,1.0881 0.348,1.0436 0.348,1.0436 -0.6271,1.2892 -1.2693,0.3196 -1.376,0.3119 -1.5373,-0.1093 z m -7.5343999,-0.7146 c -0.1864,-0.06 -0.6582,-0.3014 -1.0516,-0.5382 -0.7152,-0.4302 -0.7152,-0.4302 -0.2563,-1.2059 0.2531,-0.4263 0.5415,-0.827 0.6437,-0.8904 0.3196,-0.1971 1.7868999,0.6286 1.7769999,0.9989 -0.034,0.6541 -0.7607999,1.7479 -1.1115999,1.6356 z m 12.1497999,-0.571 c -0.1157,-0.1457 -0.3724,-0.5821 -0.5686,-0.9691 -0.357,-0.7036 -0.357,-0.7036 0.5204,-1.2843 0.8772,-0.5804 0.8772,-0.5804 1.5622,0.2505 0.3766,0.457 0.6845,0.8843 0.6845,0.9496 0,0.066 -0.4471,0.3887 -0.9935,0.7189 -0.7396,0.4467 -1.0475,0.5322 -1.205,0.3346 z m -16.8699999,-2.7462 c -0.7728,-0.7989 -0.7728,-0.7989 0,-1.4511 0.4315,-0.3587 0.892,-0.6548 1.0231,-0.6582 0.1307,0 0.5286,0.2971 0.8834,0.6676 0.6458,0.6736 0.6458,0.6736 -0.1136,1.4574 -0.4178,0.4309 -0.8208,0.7835 -0.8958,0.7835 -0.073,0 -0.484,-0.3595 -0.9089,-0.7992 z m 19.9666999,-0.6569 c -0.7596,-0.7837 -0.7596,-0.7837 -0.1007,-1.5122 0.363,-0.4007 0.6758,-0.7619 0.6951,-0.8026 0.047,-0.1007 1.8702,1.1133 1.8702,1.2463 0,0.195 -1.3809,1.8521 -1.5444,1.8521 -0.09,0 -0.503,-0.3527 -0.9206,-0.7836 z m -22.2714999,-2.5233 c -0.058,-0.092 -0.2599,-0.5472 -0.451,-1.0105 -0.3494999,-0.8422 -0.3494999,-0.8422 0.4519,-1.1769 1.1604,-0.4851 1.3749,-0.4266 1.7524,0.4772 0.4296,1.0284 0.4609,0.914 -0.3895,1.4323 -0.7688,0.4688 -1.1964,0.556 -1.3638,0.2779 z m 24.8040999,-1.1658 c -0.9411,-0.4272 -0.9411,-0.4272 -0.5824,-1.3402 0.223,-0.5689 0.502,-0.913 0.7394,-0.913 0.5804,0 1.7931,0.4667 1.7931,0.6899 0,0.3489 -0.7162,2.0006 -0.8651,1.9955 -0.079,0 -0.5674,-0.1972 -1.085,-0.4322 z m -26.29849984,-4.3953 c 0,-1.2455 0,-1.2455 1.06479994,-1.1772 1.0649,0.069 1.0649,0.069 1.1322,1.103 0.066,1.0021 0.047,1.0394 -0.6447,1.1772 -1.49709994,0.2993 -1.55229994,0.2601 -1.55229994,-1.103 z M 27.10635,14.901694 c 0,-6.4292994 -5.4943,-11.8236994 -12.034,-11.8146994 -2.8569,0 -5.3371999,0.8 -7.4148999,2.3804 -0.6682,0.5082 -0.9676,1.0175 -0.5607,0.9532 0.092,-0.021 0.9503,-0.021 1.9059,0 1.7373999,0.026 1.7373999,0.026 1.7373999,1.1527 v 1.1262 l -3.9791999,-0.062 -3.9797,-0.062 v -3.9235 -3.92329993 l 1.1769,-0.069 c 1.1772,-0.069 1.1772,-0.069 1.1772,1.86859993 v 1.9365 l 1.1045,-0.8106 c 1.3631,-1.0008 3.9875999,-2.2167 5.5927999,-2.5914999 1.6901,-0.39440003 5.012,-0.33980003 6.7544,0.1115 6.2568,1.6197999 10.7616,7.2414999 10.7616,13.4299993 0,1.7051 0,1.7051 -1.121,1.7051 -1.1212,0 -1.1212,0 -1.1212,-1.4103 z"
       id="path26667-4-0-1"
       inkscape:transform-center-x="25.523342"
       inkscape:transform-center-y="-3.9634784" />
  </g>
</svg>
