<?xml version="1.0" encoding="UTF-8" standalone="no"?>
<!-- Created with Inkscape (http://www.inkscape.org/) -->

<svg
   width="30mm"
   height="30mm"
   viewBox="0 0 30 30"
   version="1.1"
   id="svg7942"
   sodipodi:docname="upload_image.svg"
   inkscape:version="1.2.1 (9c6d41e410, 2022-07-14)"
   xmlns:inkscape="http://www.inkscape.org/namespaces/inkscape"
   xmlns:sodipodi="http://sodipodi.sourceforge.net/DTD/sodipodi-0.dtd"
   xmlns="http://www.w3.org/2000/svg"
   xmlns:svg="http://www.w3.org/2000/svg">
  <sodipodi:namedview
     id="namedview7944"
     pagecolor="#000000"
     bordercolor="#ffffff"
     borderopacity="0"
     inkscape:showpageshadow="2"
     inkscape:pageopacity="0"
     inkscape:pagecheckerboard="0"
     inkscape:deskcolor="#363636"
     inkscape:document-units="mm"
     showgrid="true"
     inkscape:zoom="2.8284273"
     inkscape:cx="-16.086679"
     inkscape:cy="98.641391"
     inkscape:window-width="1920"
     inkscape:window-height="1017"
     inkscape:window-x="1912"
     inkscape:window-y="-1"
     inkscape:window-maximized="1"
     inkscape:current-layer="layer1"
     showguides="true">
    <inkscape:grid
       type="xygrid"
       id="grid8063"
       originx="0"
       originy="0" />
  </sodipodi:namedview>
  <defs
     id="defs7939" />
  <g
     inkscape:label="Layer 1"
     inkscape:groupmode="layer"
     id="layer1">
    <path
       style="fill:#151515;fill-opacity:1;stroke-width:0.0828477"
       d="m 5.9793932,29.834415 c -0.758264,-0.07702 -1.47585,-0.435539 -2.079387,-1.039076 -0.521009,-0.52101 -0.810283,-1.026077 -0.995947,-1.738902 -0.186359,-0.715482 -0.18609,-23.3623178 3e-4,-24.0778728 0.320021,-1.228667 1.150296,-2.17156399 2.320139,-2.63484699 l 0.49708,-0.196866 5.9650628,-0.02491 c 3.280767,-0.01376 6.094363,-0.0014 6.252427,0.02788 0.24219,0.04451 0.976051,0.738842 4.667148,4.41587399 2.408865,2.399696 4.432549,4.463742 4.497078,4.58679 0.180318,0.343807 0.174419,17.2103708 -0.0063,17.9039958 -0.331471,1.272615 -1.224488,2.232422 -2.486127,2.67209 -0.383094,0.133487 -1.077842,0.145033 -9.237548,0.154048 -4.852826,0.0063 -9.0801108,-0.01629 -9.3939788,-0.04824 z M 24.113825,27.538001 c 0.394181,-0.181013 0.570813,-0.365775 0.74248,-0.776595 0.111661,-0.267163 0.127477,-1.2763 0.127477,-8.136786 v -7.831811 l -2.50615,-0.0014 c -2.740336,-0.0014 -3.212332,-0.05773 -3.979074,-0.475001 -0.547296,-0.297877 -1.251834,-1.0034588 -1.509285,-1.5114838 -0.416371,-0.82167 -0.45599,-1.161587 -0.45599,-3.91191 v -2.550883 l -5.157283,0.0021 c -4.8268048,0.0014 -5.1785198,0.01154 -5.4886708,0.153999 -0.394181,0.181005 -0.57083,0.36577 -0.74248,0.776599 -0.11261,0.269461 -0.127477,1.637281 -0.127477,11.7433418 0,10.106048 0.01424,11.473859 0.127477,11.743332 0.17165,0.410835 0.348299,0.595581 0.74248,0.776595 0.314943,0.144558 0.766979,0.15215 9.1132758,0.15215 8.346288,0 8.798324,-0.0079 9.113267,-0.15215 z m -9.774928,-3.420565 c -0.448572,-0.352854 -0.456796,-0.428802 -0.456796,-4.221359 v -3.49496 l -1.191243,1.166918 c -1.256639,1.230987 -1.452204,1.348687 -2.029882,1.221798 -0.265898,-0.05836 -0.7024658,-0.49137 -0.7975508,-0.790987 -0.03116,-0.09806 -0.03163,-0.314912 -0.0014,-0.481818 0.04729,-0.258306 0.3906068,-0.639819 2.3066318,-2.562834 2.405321,-2.414101 2.520698,-2.500645 3.118953,-2.339291 0.422001,0.113875 4.764858,4.474904 4.847244,4.867615 0.116406,0.554476 -0.298795,1.180139 -0.865655,1.304642 -0.494502,0.108656 -0.817021,-0.0949 -2.011348,-1.269452 l -1.139172,-1.120244 v 3.496779 c 0,3.794549 -0.0079,3.870323 -0.456796,4.223193 -0.318423,0.250478 -1.004867,0.250478 -1.323306,0 z m 6.791848,-17.8819158 -2.319189,-2.320418 -0.02499,1.636915 c -0.02625,1.721219 0.02072,2.072444 0.329098,2.464585 0.371454,0.472218 0.676955,0.535497 2.595004,0.537506 l 1.73925,0.0016 z"
       id="path2787" />
  </g>
</svg>
